# xmcd CD database file
#
# Track frame offsets:
#	150
#	29950
#	45340
#
# Disc length: 988 seconds
#
# Revision: 0
# Processed by: cddbd v1.5.1PL2 Copyright (c) Steve Scherf et al.
# Submitted via: CDex 1.60beta1
#
DISCID=2103da03
DTITLE=Cis-Trance - 東方紅想歌 〜前夜祭〜
DYEAR=1900
DGENRE=サウンドトラック (一般)
TTITLE0=A Cherry tree of darkness
TTITLE1=萌え萌え東方ハードコア！！
TTITLE2=melody of Sig Sig (王道系MAKINA MIX)
EXTD=
EXTT0=
EXTT1=
EXTT2=
PLAYORDER=
